<svg viewBox="0 0 2252 449" fill="none" xmlns="http://www.w3.org/2000/svg">
<path fill-rule="evenodd" clip-rule="evenodd" d="M0 20V40H1116H2232V20V0H1116H0V20ZM2135 72.5V78H2144.48H2153.95L2154.23 94.75L2154.5 111.5L2160.75 111.798L2167 112.095V95.048V78H2176.94H2186.88L2187.19 74.526C2187.47 71.376 2188.51 72.964 2198.32 91.526L2209.14 112L2218.32 111.992L2227.5 111.983L2230.3 106.742C2231.84 103.859 2237.17 93.737 2242.13 84.25L2251.15 67H2243.58H2236.01L2227.13 84.748L2218.24 102.497L2209.38 84.748L2200.53 67H2167.76H2135V72.5ZM147.295 75.96C97.096 84.795 53.247 120.259 33.87 167.694C25.204 188.909 22.54 204.67 23.291 230.292C23.874 250.201 25.048 257.2 30.619 274C47.422 324.664 89.975 362.691 143.075 374.495C154.399 377.012 184.913 377.67 197.525 375.669C231.331 370.305 265.415 351.765 287.148 326.92C315.54 294.462 329.068 253.571 325.072 212.283C322.483 185.535 314.21 162.118 299.58 140.124C277.3 106.633 238.808 82.005 198.53 75.473C185.899 73.424 160.321 73.667 147.295 75.96ZM1995.5 75.101C1942.93 80.584 1895.54 114.094 1873.5 161.36C1858.43 193.675 1855.18 228.559 1863.98 263.548C1878.27 320.347 1924.53 363.625 1983.27 375.151C2000.06 378.445 2022.97 378.254 2040.1 374.679C2056.2 371.32 2067.82 367.24 2081 360.324C2111.2 344.478 2133.1 321.722 2148.06 290.65C2173.56 237.671 2165.26 174.036 2126.89 128.325C2105.84 103.258 2073.88 83.98 2042.77 77.597C2026.81 74.323 2010.97 73.487 1995.5 75.101ZM338 226.5V377H372.532H407.063L504.043 294.75C557.382 249.513 601.468 212.35 602.012 212.167C602.658 211.949 603 240.448 603 294.417V377H646H689V226.5V76H655.096H621.192L523.346 158.845L425.5 241.689L425.244 158.845L424.989 76H381.494H338V226.5ZM712 226.5V377H863H1014V340V303H906.5H799V281.5V260H905.013H1011.03L1010.76 224.75L1010.5 189.5L904.75 189.245L799 188.991V169.495V150H906.5H1014V113V76H863H712V226.5ZM1033 112.997V150H1090H1147V263.5V377H1190.5H1234V263.5V150H1291.51H1349.03L1348.76 113.25L1348.5 76.5L1190.75 76.247L1033 75.994V112.997ZM1364.03 78.25C1364.05 78.938 1388.94 146.55 1419.34 228.5L1474.62 377.5L1526.36 377.759L1578.09 378.018L1579.41 374.759C1580.13 372.967 1591.24 339.438 1604.11 300.252C1616.97 261.065 1627.74 229.003 1628.03 229.002C1628.32 229.001 1634.54 247.337 1641.86 269.75C1649.17 292.163 1660.13 325.688 1666.2 344.25L1677.24 378H1729.01C1777.4 378 1780.83 377.885 1781.47 376.25C1784.1 369.46 1891.35 80.13 1891.74 78.75C1892.21 77.1 1889.42 77 1843.22 77C1797.47 77 1794.17 77.116 1793.53 78.75C1793.15 79.712 1779.33 119.2 1762.81 166.5C1746.3 213.8 1732.47 253.076 1732.08 253.779C1731.7 254.482 1720.28 218.707 1706.7 174.279C1693.12 129.851 1680.86 89.783 1679.46 85.241L1676.92 76.981L1627.74 77.241L1578.57 77.5L1565.97 119C1559.04 141.825 1546.91 181.791 1539.01 207.813C1531.11 233.836 1524.34 254.536 1523.95 253.813C1523.57 253.091 1509.39 213.013 1492.45 164.75L1461.64 77H1412.82C1374.41 77 1364.01 77.267 1364.03 78.25ZM164.193 149.032C138.493 152.534 116.158 168.795 105.052 192.09C99.061 204.656 97.533 211.471 97.565 225.5C97.586 234.808 98.088 239.248 99.804 245.291C108.141 274.653 130.363 295.302 160.208 301.42C169.963 303.42 178.041 303.422 187.695 301.428C205.508 297.749 215.631 292.315 228.623 279.46C236.696 271.473 238.347 269.203 242.807 259.96C249.576 245.935 251.417 237.153 250.742 222.11C249.873 202.774 243.416 187.174 230.512 173.236C213.419 154.774 188.581 145.709 164.193 149.032ZM1998.83 149.954C1974.44 154.43 1953.87 169.183 1943.13 189.903C1936.89 201.935 1934.89 209.073 1934.28 221.552C1932.7 253.733 1948.82 281.126 1977.5 294.985C1990.6 301.315 1995.88 302.496 2011 302.474C2025.94 302.452 2032.65 300.909 2045.5 294.533C2061.05 286.818 2072.11 275.582 2080 259.5C2086.4 246.442 2088.46 236.469 2087.73 222.046C2086.08 189.329 2063.45 160.912 2031.98 152.023C2023.6 149.656 2006.33 148.578 1998.83 149.954ZM0 429.5V449H1116H2232V429.5V410H1116H0V429.5Z" fill="#FB5304"/>
</svg>
